<svg width="94" height="99" viewBox="0 0 94 99" fill="none" xmlns="http://www.w3.org/2000/svg">
<path d="M31.3351 50.7817L33.5291 52.9895L37.9538 48.5737L35.7475 46.3657C29.6651 40.2786 29.6651 30.3736 35.7475 24.2867L37.9538 22.0788L33.5412 17.6632L31.3349 19.8712C22.8148 28.3856 22.8148 42.255 31.3351 50.7817ZM26.9226 15.4554L29.1287 13.2474L24.7163 8.83158L22.51 11.0396C9.12642 24.4333 9.12642 46.2195 22.51 59.6133L24.7163 61.8213L29.1287 57.4055L26.9224 55.1975C15.9646 44.2434 15.9646 26.4095 26.9226 15.4554ZM18.0978 6.62378L20.3041 4.41579L15.8914 0L13.6853 2.20799C-4.56177 20.469 -4.56177 50.1841 13.6853 68.4571L15.8916 70.6651L20.3041 66.2493L18.0978 64.0414C2.27638 48.2077 2.27638 22.4449 18.0978 6.62378ZM57.8097 46.3659L55.6034 48.5739L60.0281 52.9895L62.2221 50.7815C70.7423 42.2548 70.7423 28.3854 62.2221 19.871L60.0158 17.6632L55.6034 22.079L57.8097 24.2869C63.8919 30.3738 63.8919 40.2788 57.8097 46.3659ZM71.047 11.0396L68.8407 8.83158L64.4282 13.2474L66.6345 15.4554C77.5803 26.4095 77.5803 44.2434 66.6345 55.1975L64.4282 57.4053L68.8407 61.8211L71.047 59.6131C84.4305 46.2195 84.4305 24.4333 71.047 11.0396ZM79.8718 2.20799L77.6655 0L73.2531 4.41579L75.4594 6.62378C91.2687 22.4451 91.2687 48.1956 75.4594 64.0414L73.2531 66.2493L77.6655 70.6651L79.8718 68.4571C98.1187 50.1839 98.1187 20.4567 79.8718 2.20799Z" fill="#F4D79D"/>
<path d="M62.3368 92.1549V98.4004H31.1328V92.1549C31.1328 88.7027 33.9242 85.9094 37.3736 85.9094H43.6144V44.7402C39.9821 43.4471 37.3736 40.0193 37.3736 35.9451C37.3736 30.773 41.5666 26.5768 46.7348 26.5768C51.9029 26.5768 56.096 30.773 56.096 35.9451C56.096 40.0193 53.4752 43.4471 49.8552 44.7402V85.9094H56.096C59.5456 85.9094 62.3368 88.7029 62.3368 92.1549Z" fill="#7A0200"/>
</svg>
